<svg width="146" height="58" viewBox="0 0 146 58" fill="none" xmlns="http://www.w3.org/2000/svg">
<g clip-path="url(#clip0)">
<path d="M20.8157 23.2978C24.4041 32.8452 20.0301 42.9454 14.1414 50.5507L13.8654 50.9051L14.5661 51.4579L14.8492 51.1106C18.0058 47.2406 20.1858 43.6542 24.6519 40.9466C27.483 39.2313 30.5547 38.3808 33.8529 38.2036C36.2452 38.076 38.6446 37.7429 40.9661 37.1262L42.0561 36.8356L41.0652 36.297C37.9227 34.5817 36.0754 31.3284 34.9783 28.0467C32.5082 20.6611 25.3384 17.5567 18.0483 17.0109L17.015 16.9329L17.659 17.7409C18.9897 19.4349 20.0584 21.292 20.8157 23.2978Z" fill="#DC994D"/>
<path d="M2.98682 20.5406C1.47218 23.7444 0.516687 27.2245 0.155721 30.7968C-0.552055 37.8917 1.17492 45.3624 5.71884 50.983C9.15155 55.2216 11.5438 55.172 14.8633 51.1035C20.9502 43.236 25.3738 32.8452 21.665 22.986C21.0493 21.3557 18.9401 17.9536 18.9755 17.9961C14.0635 17.6275 8.67734 17.9181 4.14758 20.002L2.98682 20.5406Z" fill="#D07530"/>
<path d="M40.6193 37.0979C44.0095 38.9478 47.9023 38.721 51.5048 37.6649C61.534 34.7305 66.6442 27.8341 62.7797 17.5496C61.6119 14.4451 59.8495 11.6241 57.5846 9.20005C48.5747 -0.432355 33.9166 -2.11218 21.934 2.35318C13.7804 5.38678 7.26886 11.5816 3.55303 19.3924L3.36194 19.7964L2.97974 20.5477C6.63186 14.1119 7.7006 14.2891 10.8148 11.539C11.1616 11.2343 11.5155 10.9366 11.8765 10.646C20.7449 3.52976 33.6194 0.815109 43.9387 6.44287C46.515 7.85336 48.7799 9.72456 50.6272 12.0068C53.43 15.4657 55.0508 19.7822 54.1449 24.2334C52.8142 30.7755 46.8123 34.6526 40.7254 36.2615L39.6354 36.5521L40.6193 37.0979Z" fill="#ABB063"/>
<path d="M17.9704 17.9181C24.8854 18.4355 31.7579 21.3132 34.1077 28.3373C35.2826 31.8458 37.2715 35.255 40.6193 37.0908L40.7821 37.1758L40.959 37.1262C47.3927 35.4251 53.6282 31.3 55.0296 24.4035C55.9922 19.683 54.3006 15.1042 51.3279 11.4327C49.4099 9.05828 47.06 7.10912 44.3705 5.64193C33.7255 -0.163035 20.4618 2.58706 11.3103 9.923C10.9352 10.2207 10.5742 10.5326 10.2132 10.8515L9.74609 11.2626L10.284 11.5745C13.0797 13.1763 15.6277 15.2176 17.6449 17.7409L17.7652 17.8968L17.9704 17.9181Z" fill="#B8BD69"/>
<path d="M2.98682 20.5406L4.14757 20.0019C8.67734 17.9181 14.0706 17.6417 18.9826 18.0103C16.7389 14.9199 13.8299 12.5739 10.4609 10.646C7.29717 13.4457 4.81288 16.6636 2.98682 20.5406Z" fill="#BA692B"/>
<path d="M26.8034 53.6126C25.6427 50.0403 25.8338 49.367 29.7124 50.1112C33.591 50.8554 33.5202 51.543 31.1138 54.4348C28.7357 57.2983 27.95 57.1495 26.8034 53.6126Z" fill="#D8D9DD"/>
<path d="M20.483 57.433C14.4952 56.0225 13.7238 55.1861 18.0412 50.4302C22.3586 45.6671 23.2716 46.3546 25.2888 52.1383C27.2847 57.8653 26.4142 58.8293 20.483 57.433Z" fill="#C2C3C9"/>
<path d="M74.5783 8.33533C74.5783 11.9147 83.5812 10.5822 83.5812 16.0398C83.5812 19.1443 81.012 20.5406 77.7633 20.5406C74.9535 20.5406 72.8018 19.2081 71.91 18.0882C71.7401 17.8472 71.6694 17.6771 71.6694 17.4432C71.6694 16.8975 72.1153 16.458 72.6603 16.458C72.8655 16.458 73.1415 16.5289 73.4105 16.7982C74.4722 17.8543 75.8382 18.471 77.7562 18.471C79.7097 18.471 81.3871 17.826 81.3871 16.054C81.3871 12.5455 72.3842 13.9418 72.3842 8.3495C72.3842 5.52144 74.7128 4.22437 77.6218 4.22437C79.9503 4.22437 81.7623 5.01112 82.8239 6.40743C82.923 6.5421 83.0646 6.74765 83.0646 7.05242C83.0646 7.59819 82.6187 8.03764 82.0737 8.03764C81.9038 8.03764 81.6278 8.0022 81.3517 7.73286C80.4246 6.84688 79.3983 6.30111 77.6218 6.30111C76.0859 6.28693 74.5783 6.76891 74.5783 8.33533Z" fill="#B8BD69"/>
<path d="M92.2798 6.15226C89.3001 6.15226 87.658 8.05889 87.4528 11.0925H96.6609C96.6609 8.6401 95.8045 6.15226 92.2798 6.15226ZM92.2798 4.17474C97.758 4.17474 98.8196 8.50543 98.8196 10.8232C98.8196 11.8084 98.8196 13.0062 97.4536 13.0062H87.4528C87.4528 16.38 89.4062 18.5631 92.6266 18.5631C94.6154 18.5631 95.7762 17.8118 96.7317 17.0959C96.937 16.9613 97.0714 16.8904 97.3475 16.8904C97.8924 16.8904 98.3384 17.3298 98.3384 17.8756C98.3384 18.2512 98.1685 18.4568 97.9632 18.6623C97.4466 19.1727 95.67 20.569 92.6195 20.569C88.0685 20.569 85.2233 18.0811 85.2233 12.3541C85.2233 7.10912 87.8279 4.17474 92.2798 4.17474Z" fill="#B8BD69"/>
<path d="M114.228 10.2065V19.3073C114.228 19.9169 113.747 20.3989 113.131 20.3989C112.515 20.3989 112.034 19.924 112.034 19.3073V10.6531C112.034 7.95966 111.248 6.11682 107.929 6.11682C104.539 6.11682 103.371 8.16521 103.371 10.887V19.3073C103.371 19.9169 102.889 20.3989 102.274 20.3989C101.658 20.3989 101.177 19.924 101.177 19.3073V5.47182C101.177 4.85518 101.658 4.38029 102.274 4.38029C102.889 4.38029 103.371 4.85518 103.371 5.47182V6.56335C104.022 5.26628 105.699 4.17474 107.929 4.17474C113.202 4.17474 114.228 7.30758 114.228 10.2065Z" fill="#B8BD69"/>
<path d="M130.351 10.2065V19.3073C130.351 19.9169 129.87 20.3989 129.254 20.3989C128.638 20.3989 128.157 19.924 128.157 19.3073V10.6531C128.157 7.95966 127.371 6.11682 124.052 6.11682C120.662 6.11682 119.494 8.16521 119.494 10.887V19.3073C119.494 19.9169 119.013 20.3989 118.397 20.3989C117.781 20.3989 117.3 19.924 117.3 19.3073V5.47182C117.3 4.85518 117.781 4.38029 118.397 4.38029C119.013 4.38029 119.494 4.85518 119.494 5.47182V6.56335C120.145 5.26628 121.822 4.17474 124.052 4.17474C129.325 4.17474 130.351 7.30758 130.351 10.2065Z" fill="#B8BD69"/>
<path d="M139.46 6.15226C136.48 6.15226 134.838 8.05889 134.633 11.0925H143.841C143.841 8.6401 142.985 6.15226 139.46 6.15226ZM139.46 4.17474C144.938 4.17474 146 8.50543 146 10.8232C146 11.8084 146 13.0062 144.634 13.0062H134.633C134.633 16.38 136.587 18.5631 139.8 18.5631C141.789 18.5631 142.95 17.8118 143.905 17.0959C144.11 16.9613 144.245 16.8904 144.521 16.8904C145.066 16.8904 145.512 17.3298 145.512 17.8756C145.512 18.2512 145.342 18.4568 145.137 18.6623C144.62 19.1727 142.843 20.569 139.793 20.569C135.242 20.569 132.397 18.0811 132.397 12.3541C132.404 7.10912 135.008 4.17474 139.46 4.17474Z" fill="#B8BD69"/>
<path d="M74.9534 23.794V43.2572C74.9534 44.6181 75.3993 45.1993 76.3194 45.1993C76.8644 45.1993 77.3457 45.6458 77.3457 46.22C77.3457 46.8012 76.8644 47.2406 76.3194 47.2406C74.0263 47.2406 72.7593 45.8797 72.7593 43.2501V23.794C72.7593 23.2128 73.276 22.7024 73.8564 22.7024C74.4722 22.7024 74.9534 23.2128 74.9534 23.794Z" fill="#B8BD69"/>
<path d="M82.4842 46.1562C82.4842 46.7728 82.0029 47.2477 81.3871 47.2477C80.7714 47.2477 80.2901 46.7728 80.2901 46.1562V32.3136C80.2901 31.6969 80.7714 31.222 81.3871 31.222C82.0029 31.222 82.4842 31.6969 82.4842 32.3136V46.1562ZM80.0919 26.7213C80.0919 25.736 80.5732 25.3604 81.3942 25.3604C82.2152 25.3604 82.6965 25.736 82.6965 26.7213C82.6965 27.5364 82.2152 28.0183 81.3942 28.0183C80.5661 28.0183 80.0919 27.5434 80.0919 26.7213Z" fill="#B8BD69"/>
<path d="M97.5173 37.7358C97.5173 34.4966 95.6346 33.0011 92.9946 33.0011C89.845 33.0011 88.1676 34.9786 88.1676 39.2384C88.1676 43.4344 89.8804 45.4403 92.9946 45.4403C96.215 45.4403 97.5173 42.4421 97.5173 42.4421V37.7358ZM85.9806 39.2384C85.9806 33.6461 88.5852 31.0236 93.0017 31.0236C96.9016 31.0236 99.7114 33.2421 99.7114 37.7358V52.7337C99.7114 53.3504 99.2302 53.8253 98.6144 53.8253C97.9986 53.8253 97.5173 53.3504 97.5173 52.7337V45.1993C96.7317 46.2908 95.0543 47.4178 92.8602 47.4178C88.4436 47.4178 85.9806 44.8237 85.9806 39.2384Z" fill="#B8BD69"/>
<path d="M105.699 32.3136V41.2088C105.699 43.4274 106.421 45.334 109.875 45.334C113.336 45.334 114.051 43.4274 114.051 41.2088V32.3136C114.051 31.6969 114.568 31.222 115.183 31.222C115.764 31.222 116.245 31.6969 116.245 32.3136V41.2088C116.245 44.448 115.183 47.4107 109.875 47.4107C104.602 47.4107 103.505 44.448 103.505 41.2088V32.3136C103.505 31.6969 103.986 31.222 104.602 31.222C105.19 31.222 105.699 31.704 105.699 32.3136Z" fill="#B8BD69"/>
<path d="M131.554 39.203C131.554 34.9077 129.742 33.0011 126.586 33.0011C123.436 33.0011 121.624 34.9077 121.624 39.203C121.624 43.5691 123.436 45.4403 126.586 45.4403C129.735 45.4403 131.554 43.562 131.554 39.203ZM133.777 39.203C133.777 44.7953 131.038 47.4178 126.586 47.4178C122.169 47.4178 119.395 44.7953 119.395 39.203C119.395 33.6106 122.169 31.0236 126.586 31.0236C131.038 31.0165 133.777 33.6106 133.777 39.203Z" fill="#B8BD69"/>
<path d="M139.46 33.8162C140.147 32.2498 141.86 31.0874 144.216 31.0874C144.797 31.0874 145.278 31.5623 145.278 32.1435C145.278 32.7247 144.797 33.1996 144.216 33.1996C141.067 33.1996 139.46 35.3826 139.46 38.5155V46.1491C139.46 46.7586 138.979 47.2406 138.363 47.2406C137.747 47.2406 137.266 46.7657 137.266 46.1491V32.3136C137.266 31.6969 137.747 31.222 138.363 31.222C138.979 31.222 139.46 31.6969 139.46 32.3136V33.8162Z" fill="#B8BD69"/>
</g>
<defs>
<clipPath id="clip0">
<rect width="146" height="58" fill="white"/>
</clipPath>
</defs>
</svg>
